<svg width="8.9181mm" height="8.9181mm" version="1.1" viewBox="0 0 8.9181 8.9181" xmlns="http://www.w3.org/2000/svg">
<g transform="translate(-17.464 -31.737)">
<g transform="matrix(.010593 0 0 .010593 19.211 33.485)">
<path d="m212.69 105.89c-5.818-2.327-12.8 1.164-13.964 6.982l-34.908 104.73c-2.327 5.818 1.164 12.8 6.982 15.127 1.164 0 2.327 1.164 3.491 1.164 4.655 0 9.309-3.491 10.473-8.145l34.909-104.73c2.326-5.819-1.164-12.801-6.983-15.128zm193.16 74.473c-2.327-3.491-5.818-5.818-10.473-5.818h-86.109l73.309-158.26c1.164-3.491 1.164-8.145-1.164-11.636-2.327-3.491-5.818-4.655-9.308-4.655h-128c-6.982 0-11.636 4.655-11.636 11.636s4.655 11.636 11.636 11.636h109.38l-73.309 158.26c-1.164 3.491-1.164 8.145 1.164 11.636 2.327 3.491 5.818 4.655 9.309 4.655h82.618l-164.07 245.53 34.91-161.74c1.164-3.491 0-6.982-2.327-9.309-2.327-3.491-5.818-4.655-9.309-4.655h-101.24l77.964-252.51c2.327-5.818-1.164-12.8-8.145-13.964-5.818-2.327-12.8 1.164-13.964 8.145l-81.455 267.64c-1.164 2.327-1.164 5.818 1.164 9.309 2.327 2.327 5.818 4.655 9.309 4.655h102.4l-44.218 207.13c-1.164 5.818 1.164 10.473 6.982 12.8 1.163 1.165 3.49 1.165 4.654 1.165 3.491 0 6.982-2.327 9.309-4.655l209.46-314.18c2.327-4.654 3.49-8.145 1.163-12.799zm271.1 75.636a420.96 420.96 0 0 1-420.96 420.96 420.96 420.96 0 0 1-420.96-420.96 420.96 420.96 0 0 1 420.96-420.96 420.96 420.96 0 0 1 420.96 420.96z" fill="#fff"/>
</g>
</g>
</svg>
