<svg width="79.244mm" height="12.541mm" version="1.1" viewBox="0 0 79.244 12.541" xmlns="http://www.w3.org/2000/svg">
<g transform="translate(-69.722 -105.02)">
<g transform="matrix(.010593 0 0 .010593 86.236 110.39)">
<path d="m212.69 105.89c-5.818-2.327-12.8 1.164-13.964 6.982l-34.908 104.73c-2.327 5.818 1.164 12.8 6.982 15.127 1.164 0 2.327 1.164 3.491 1.164 4.655 0 9.309-3.491 10.473-8.145l34.909-104.73c2.326-5.819-1.164-12.801-6.983-15.128zm193.16 74.473c-2.327-3.491-5.818-5.818-10.473-5.818h-86.109l73.309-158.26c1.164-3.491 1.164-8.145-1.164-11.636-2.327-3.491-5.818-4.655-9.308-4.655h-128c-6.982 0-11.636 4.655-11.636 11.636s4.655 11.636 11.636 11.636h109.38l-73.309 158.26c-1.164 3.491-1.164 8.145 1.164 11.636 2.327 3.491 5.818 4.655 9.309 4.655h82.618l-164.07 245.53 34.91-161.74c1.164-3.491 0-6.982-2.327-9.309-2.327-3.491-5.818-4.655-9.309-4.655h-101.24l77.964-252.51c2.327-5.818-1.164-12.8-8.145-13.964-5.818-2.327-12.8 1.164-13.964 8.145l-81.455 267.64c-1.164 2.327-1.164 5.818 1.164 9.309 2.327 2.327 5.818 4.655 9.309 4.655h102.4l-44.218 207.13c-1.164 5.818 1.164 10.473 6.982 12.8 1.163 1.165 3.49 1.165 4.654 1.165 3.491 0 6.982-2.327 9.309-4.655l209.46-314.18c2.327-4.654 3.49-8.145 1.163-12.799zm271.1 75.636a420.96 420.96 0 0 1-420.96 420.96 420.96 420.96 0 0 1-420.96-420.96 420.96 420.96 0 0 1 420.96-420.96 420.96 420.96 0 0 1 420.96 420.96zm5245.2 406.31-284.75-418.14 269.76-389.66h-215.81l-164.86 254.78-163.36-254.78h-217.31l269.76 389.66-284.75 418.14h217.31l181.34-277.26 176.85 277.26zm-1203.9 14.987c232.3 0 388.16-167.85 388.16-419.63 0-250.28-155.86-418.14-388.16-418.14-233.8 0-389.66 167.85-389.66 418.14 0 251.78 155.86 419.63 389.66 419.63zm-1.501-175.35c-106.41 0-178.34-97.415-178.34-244.29 0-145.37 71.937-244.29 178.34-244.29 107.91 0 178.34 98.914 178.34 244.29 0 146.87-70.439 244.29-178.34 244.29zm-828.99-662.42c-110.9 0-191.83 46.46-244.29 125.89v-472.09h-203.82v1169h167.85l19.484-137.88c52.454 94.417 137.88 152.87 260.77 152.87 194.83 0 323.72-166.36 323.72-415.14 0-254.78-128.89-422.63-323.72-422.63zm-64.444 662.42c-107.91 0-179.84-97.415-179.84-244.29 0-145.37 71.937-244.29 179.84-244.29 106.41 0 178.34 98.914 178.34 245.79 0 146.87-71.937 242.79-178.34 242.79zm-814.02-662.42c-109.41 0-208.32 49.457-268.27 143.87-34.47-94.417-107.91-143.87-218.81-143.87-104.91 0-200.82 52.455-257.78 154.37l-20.982-139.38h-167.85v807.8h203.82v-436.12c0-127.39 62.945-212.81 161.86-212.81 77.932 0 119.9 53.953 119.9 158.86v490.07h203.82v-436.12c0-127.39 64.444-212.81 161.86-212.81 79.431 0 121.39 53.953 121.39 158.86v490.07h203.82v-523.04c0-196.33-82.429-299.74-242.79-299.74zm-1101.1 0c-116.9 0-221.81 59.948-283.25 175.35l-22.48-160.36h-167.85v807.8h203.82v-385.16c0-145.37 95.916-241.29 244.29-241.29h74.935v-196.33zm-641.04 0c-116.9 0-221.81 59.948-283.25 175.35l-22.48-160.36h-167.85v807.8h203.82v-385.16c0-145.37 95.916-241.29 244.29-241.29h74.935v-196.33zm-1683.7 662.42c-58.449 0-97.415-38.966-97.415-95.916v-385.16h238.29v-166.36h-238.29v-199.33h-169.35l-26.976 199.33h-140.88v166.36h133.38v428.63c0 136.38 94.418 227.8 235.29 227.8 67.441 0 140.88-13.489 187.34-34.47l29.974-167.85c-40.465 17.984-98.914 26.976-151.37 26.976zm-839.69 175.35c202.32 0 338.7-104.91 338.7-262.27 0-137.88-92.919-194.83-202.32-226.3l-140.88-38.966c-44.961-13.489-77.932-34.47-77.932-77.932 0-44.961 50.956-74.935 127.39-74.935 77.932 0 173.85 22.48 241.29 53.953v-157.36c-74.935-32.971-184.34-53.953-272.76-53.953-179.84 0-299.74 97.416-299.74 245.79 0 133.38 82.428 193.33 194.83 223.31l137.88 38.966c49.457 13.488 86.924 37.467 86.924 83.927 0 55.451-62.945 89.922-158.86 89.922-92.919 0-203.82-23.979-277.26-59.948l31.473 167.85c55.452 28.475 163.36 47.958 271.26 47.958z" fill="#fff"/>
</g>
</g>
</svg>
